<?xml version="1.0" encoding="utf-8"?>
<!-- Generator: Adobe Illustrator 23.0.0, SVG Export Plug-In . SVG Version: 6.00 Build 0)  -->
<svg version="1.1" id="Layer_1" xmlns="http://www.w3.org/2000/svg" xmlns:xlink="http://www.w3.org/1999/xlink" x="0px" y="0px"
	 viewBox="0 0 709.9 162.4" style="enable-background:new 0 0 709.9 162.4;" xml:space="preserve">
<style type="text/css">
	.st0{fill:#944444;}
	.st1{fill:#1D1D1B;}
</style>
<title>logo ssc</title>
<g>
	<path class="st0" d="M234.8,91c0,0,0.9-20.6-52.4-12.9c-14.5,2.3-36.5,12.8-51.1,20.4c-13.3,6.8-42,21.3-55.1,26.8
		c-7.6,3.5-15.5,6.4-23.6,8.7c-5.8,1.6-11.8,2.8-17.8,3.6c-1.7,0.3-6.7,0.7-8.2,0.9c-1.9,0.2-4.1,0.4-4.1,0.4
		c-0.7,0-1.3,0.1-1.9,0.4c-0.5,0.3-0.7,1-0.4,1.5c0.1,0.2,0.2,0.3,0.4,0.4c0,0,9.4,6.1,37.9-0.9c14.2-3.8,44.6-17.8,53.5-21.6
		c25.3-10.9,65.6-37.8,118.7-27.4C232.5,91.4,234.6,91.9,234.8,91z"/>
	<path class="st0" d="M203.3,119.4c0,0,0.6-12.2-30.4-7.7c-8.4,1.4-21.4,7.7-29.9,12.2c-7.7,4-24.4,12.6-32.1,15.8
		c-4.4,2.1-9,3.8-13.7,5.1c-3.4,0.9-6.9,1.6-10.3,2.2c-1,0.1-3.9,0.4-4.8,0.5c-1.1,0.1-2.4,0.2-2.4,0.2c-0.4,0-0.8,0.1-1.1,0.2
		c-0.3,0.2-0.4,0.6-0.2,0.9c0.1,0.1,0.1,0.2,0.2,0.2c0,0,5.5,3.6,22.1-0.5c8.3-2.3,26-10.5,31.1-12.8c14.7-6.4,38.2-22.3,69.1-16.3
		C202,119.6,203.2,119.9,203.3,119.4z"/>
	<path class="st0" d="M219.5,106.6c0,0,1-16.2-41.6-10.1c-11.8,2.4-29.5,10.1-41.2,16.1c-10.6,5.4-33.6,16.9-44,21.3
		c-6.1,2.8-12.4,5.1-18.9,6.9c-4.7,1.3-9.4,2.2-14.2,2.9c-1.4,0.2-5.3,0.6-6.6,0.7c-1.5,0.2-3.3,0.3-3.3,0.3c-0.5,0-1,0.1-1.5,0.3
		c-0.4,0.2-0.5,0.8-0.3,1.2c0.1,0.1,0.2,0.2,0.3,0.3c0,0,7.6,4.8,30.3-0.7c11.4-3,35.7-14.1,42.8-17.1c20.2-8.6,52.4-30,94.9-21.9
		C217.7,106.8,219.3,107.3,219.5,106.6z"/>
	<path class="st0" d="M249.9,68.1c0-1.4-0.2-2.7-0.6-4c-0.2-0.7-0.5-1.3-0.8-2c-0.4-1-0.9-1.9-1.5-2.8c-0.8-1.3-1.7-2.6-2.6-3.8
		c-1.3-1.6-2.8-3.2-4.5-4.5c-2.2-1.8-4.5-3.5-7-4.9c-3.3-1.9-6.8-3.6-10.3-5c-4.6-1.7-9.3-3.2-14-4.5c-5.7-1.5-11.5-2.8-17.4-3.6
		c-10.9-1.5-17.9-2.4-28.9-3.3c-1-0.1-2-0.2-3.1-0.3s-2.3-0.3-3.4-0.4s-2.5-0.3-3.8-0.5s-2.7-0.4-4-0.6s-2.8-0.5-4.2-0.8
		s-2.9-0.6-4.3-1s-2.9-0.8-4.3-1.3s-2.9-1-4.3-1.7s-2.9-1.3-4.3-2.1s-2.8-1.6-4.2-2.5s-2.8-1.9-4.1-3s-2.8-2.2-4.1-3.4
		s-2.7-2.4-4-3.7s-2.7-2.6-4-3.9c-1.2-1.3-2.5-2.5-3.9-3.5c-0.7-0.5-1.6-0.8-2.4-0.9c-1.4,0.1-2.6,0.8-3.3,2c-1.1,1.9-1,4-0.6,6.1
		c0.4,2,1.1,4,2.1,5.9c0.6,1.2,1.2,2.4,1.9,3.5c1.5,2.4,3.2,4.6,5.1,6.7c1.9,2.1,3.8,4.2,5.8,6.3c2.8,2.8,5.6,5.6,8.5,8.3
		c3.8,3.6,7.8,7,11.7,10.5l1.5,1.4c13.3,11.7-27.7,39.5-44.1,49.3c-1.6,0.9-4.7,2.6-6.3,3.4c-2,1-4.1,2-6.2,2.9
		c-2.7,1.2-5.4,2.4-8.1,3.5c-3.1,1.3-6.2,2.5-9.4,3.7c-3.3,1.3-6.6,2.5-10,3.6s-6.8,2.3-10.2,3.3s-6.9,2-10.4,2.6
		c-3.3,0.6-6.6,1.1-9.8,1.6c-2.9,0.4-5.8,0.6-8.7,0.6c-1.9,0.1-3.8,0.1-5.7,0.1c-0.8,0-4.8-0.3-3.7,2.1c0.8,1.7,3.3,2.6,4.7,3.3
		c2.7,1.2,5.4,2,8.3,2.5c4.1,0.8,8.2,1.1,12.3,0.9c5.5-0.3,11-1.1,16.5-2.3c0.7-0.1,1.4-0.3,2.1-0.5c23.6-5.3,37.2-12.4,51.3-19.8
		c13.5-7,41.4-21.2,59.4-30.1c23.6-11.6,55.4-17.9,93.1-11.6C249.7,70.1,249.7,69.1,249.9,68.1z"/>
</g>
<path class="st1" d="M565.8,29.7V0h-3.3v26.9H546c-0.4,0-2-1.4-3.4-3.2c-0.8-1.1-1.2-2.5-1.3-3.8c0-1,0.3-2,4-2c0.4,0,1,0,1.8,0.1
	h0.1c0.9,0.1,1.4,0.1,1.5,0.1h1l-0.2-0.5l-0.2-0.4c-0.2-0.4-0.3-1-0.5-1.4c-0.1-0.3-0.2-0.6-0.3-0.9l-0.1-0.1l-0.1-0.1h-3.5
	c-1.5-0.1-3.1,0.2-4.5,0.9c-1.6,1-2.6,2.7-2.5,4.6c0.1,1.7,0.6,3.4,1.5,4.9c0.4,0.7,0.9,1.4,1.3,2h-7.3V0H530v30.3h35.8L565.8,29.7z
	 M572.4,0h-3.3v30.3h3.3V0z M518.6,17.1c-1.9,1.6-3.1,3.8-3.4,6.3c-0.1,1.6-0.2,2.7-0.2,3.5h-16.6V14.6H496c-2.8,0-5.5,1.3-7.2,3.6
	c-1.8,2.3-2.8,5.2-2.7,8.1v4.1h41.1V14.6h-2.4C522.5,14.6,520.3,15.5,518.6,17.1z M489.4,26.9v-1.2c0.1-1.8,0.7-3.6,1.8-5
	c0.8-1.4,2.2-2.3,3.8-2.5h0.2v8.7L489.4,26.9z M524,26.9h-5.8v-1.6c0.1-1.7,0.8-3.3,1.9-4.6c1.2-1.6,2.5-2.4,3.8-2.4h0.1V26.9z
	 M648.7,29.7V13.8l-0.5,0.5l-0.5,0.5c-0.7,0.8-1.4,1.7-2,2.6l-0.1,0.1l-0.1,0.1v9.4h-2.9v-9.9l-0.5,0.5l-0.4,0.4
	c-0.3,0.3-1.8,1.8-2.1,2.1l-0.1,0.1l-0.1,0.1v6.7h-2.8v-7.2l-0.5,0.5l-0.5,0.4l-2.1,2.1l0,0l0,0l0,0l0,0c-0.1,0.1-0.1,0.2-0.1,0.4
	c0,0,0,2.8,0,3.8H623V15.1v-1.5l-0.6,0.6l-0.5,0.5c-0.7,0.8-1.4,1.7-2,2.6v0.1l-0.1,0.1v9.4H617v-9.8l-0.5,0.4l-0.4,0.4
	c-0.3,0.3-1,1-1.6,1.6l-0.5,0.5l-0.1,0.1l0,0c-0.1,0.1-0.1,0.3-0.1,0.4v6.4h-2.8v-7.2l-0.5,0.5l-0.5,0.4l-0.2,0.2
	c-0.5,0.4-1.6,1.6-1.9,1.8l-0.1,0.1l-0.1,0.1V23c0,0,0,2.8,0,3.8h-16.4V15.1v-0.6h-2.3c-2.8,0-5.5,1.3-7.2,3.6
	c-1.8,2.3-2.8,5.2-2.7,8.1v4.1h69.6V29.7z M588.1,26.9h-5.8v-1.2c0.1-1.8,0.7-3.6,1.8-5c1.2-1.7,2.5-2.5,3.8-2.5h0.1L588.1,26.9z
	 M664.2,30.3h4.7c0.3,1.3,0.8,2.6,1.5,3.7c0.4,0.5,0.8,1,1.3,1.4c1.3,1.1,2.9,1.7,4.6,1.6c1.5,0,3-0.4,4.2-1.2
	c1.3-0.9,2.2-2.2,2.7-3.6c0.2-0.6,0.4-1.2,0.5-1.9h19.8V0h-3.2v26.9h-16.6c-0.1-0.4-0.2-0.8-0.4-1.3c-1.3-3.9-5.5-6-9.4-4.7
	c-1.1,0.4-2.1,1-2.9,1.8c-1.1,1.1-1.9,2.6-2.2,4.1h-4.7V14.6H662c-2.7,0-5.2,1.1-7,3.1c-2,1.9-3.1,4.6-3.1,7.4v5.3h9v5.2h-7
	l-0.1,0.1l-0.1,0.1c-0.4,0.4-1.2,1.6-1.7,2.2l0,0l-0.3,0.5l-0.4,0.6h12.9L664.2,30.3z M673.3,25.6c0.8-0.8,1.9-1.2,3-1.2
	c1.2-0.1,2.3,0.4,3.1,1.2c1.5,1.9,1.5,4.6,0,6.5c-0.8,0.8-1.9,1.3-3,1.3c-1.1,0-2.2-0.5-3-1.3c-0.8-0.9-1.2-2.1-1.2-3.3
	C672.1,27.6,672.5,26.5,673.3,25.6L673.3,25.6z M661,26.9h-5.8v-2c0.1-1.6,0.9-3.2,2-4.3c1.4-1.6,2.6-2.3,3.7-2.3l0,0L661,26.9z
	 M706.6,0v30.3h3.3V0L706.6,0z"/>
<path class="st1" d="M495.4,13.2c1.1,0,2-0.9,2-2s-0.9-2-2-2s-2,0.9-2,2S494.3,13.2,495.4,13.2z"/>
<path class="st1" d="M490.4,13.2c1.1,0,2-0.9,2-2s-0.9-2-2-2s-2,0.9-2,2S489.3,13.2,490.4,13.2z"/>
<path class="st1" d="M583.6,13.2c1.1,0.1,2.1-0.8,2.1-1.9s-0.8-2.1-1.9-2.1c-1.1-0.1-2.1,0.8-2.1,1.9c0,0,0,0.1,0,0.1
	C581.6,12.3,582.5,13.2,583.6,13.2C583.5,13.2,583.5,13.2,583.6,13.2z"/>
<path class="st1" d="M588.5,13.2c1.1,0.1,2-0.8,2.1-1.9c0.1-1.1-0.8-2-1.9-2.1c-1.1-0.1-2,0.8-2.1,1.9c0,0,0,0.1,0,0.1
	C586.6,12.3,587.4,13.2,588.5,13.2C588.5,13.2,588.5,13.2,588.5,13.2z"/>
<path class="st1" d="M657.5,11.1h-2.1c-1-0.2-1-0.8-1-1s0.2-0.4,1.2-0.4h1.6V7.5h-2.7c-1.2,0-2.2,1-2.2,2.2c0,0,0,0.1,0,0.1
	c0,0.4,0.1,0.8,0.2,1.2c0,0,0,0.1,0,0.1h-0.7v2.3h5.8L657.5,11.1L657.5,11.1z"/>
<path class="st1" d="M306.9,127.6c-0.8-1.7-2.5-2.9-4.4-2.8c-2.4-0.1-4.5,1.8-4.6,4.2c0,2.3,2.1,3.6,3.8,4.3l2,0.8
	c3.9,1.7,6.8,4,6.8,9c0,5.4-3.9,9.3-8.8,9.3c-4.4,0-7.9-3.6-8.5-8.4l3.5-0.8c-0.2,3,2.1,5.5,5.1,5.7c0.1,0,0.2,0,0.3,0
	c3,0,5.1-2.7,5.1-5.8s-2.4-4.6-4.7-5.7l-1.9-0.9c-3.1-1.5-6-3.4-6-7.5c0-4.8,3.9-7.7,8.1-7.7c3,0,5.8,1.8,7,4.5L306.9,127.6z"/>
<path class="st1" d="M330.6,142.6c0,5.6-4,9.9-9.1,9.9s-9.1-4.3-9.1-9.9s4-9.9,9.1-9.9S330.6,137,330.6,142.6z M315.7,142.6
	c0,3.5,2.6,6.5,5.8,6.5s5.8-3,5.8-6.5s-2.6-6.5-5.8-6.5S315.7,139,315.7,142.6z"/>
<path class="st1" d="M346.1,138.6c-1.1-1.6-2.9-2.5-4.9-2.5c-3.2,0-5.7,3.1-5.7,6.5c0,3.8,2.4,6.6,5.9,6.6c1.8,0,3.6-1,4.6-2.5v4.5
	c-1.4,0.8-3,1.3-4.7,1.2c-5,0-9.1-4.2-9.1-9.8c0-5.7,4.1-10,9.3-10c1.6,0,3.1,0.4,4.5,1.2L346.1,138.6z"/>
<path class="st1" d="M354.2,124.8c0.1,1.2-0.9,2.3-2.1,2.4s-2.3-0.9-2.4-2.1c0-0.1,0-0.2,0-0.3c-0.1-1.2,0.7-2.4,2-2.5
	c1.2-0.1,2.4,0.7,2.5,2C354.3,124.4,354.3,124.6,354.2,124.8z M353.6,151.8h-3.3v-18.5h3.3V151.8z"/>
<path class="st1" d="M374.8,151.8h-3.3v-2.9h-0.1c-1.2,2.1-3.4,3.5-5.8,3.5c-5.2,0-8.1-4.7-8.1-10c0-5.1,3.1-9.7,8-9.7
	c2.5,0.1,4.7,1.5,5.9,3.6h0.1v-3.1h3.3L374.8,151.8z M371.7,142.6c0-3.6-2-6.6-5.5-6.6c-3.4,0-5.4,3.2-5.4,6.6s1.9,6.7,5.4,6.7
	S371.7,146.2,371.7,142.6z"/>
<path class="st1" d="M382.5,151.8h-3.3v-34.4h3.3V151.8z"/>
<path class="st1" d="M410.2,127.6c-0.8-1.7-2.5-2.9-4.4-2.8c-2.4-0.1-4.5,1.8-4.6,4.2c0,2.3,2.1,3.6,3.8,4.3l2,0.8
	c3.9,1.7,6.8,4,6.8,9c0,5.4-3.9,9.3-8.8,9.3c-4.4,0-7.9-3.6-8.5-8.4l3.5-0.8c-0.2,2.9,2.1,5.5,5,5.7c0.1,0,0.2,0,0.3,0
	c3,0,5.1-2.7,5.1-5.8s-2.4-4.6-4.7-5.7l-1.9-0.9c-3.1-1.5-6-3.4-6-7.5c0-4.8,3.9-7.7,8.1-7.7c3,0,5.7,1.8,7,4.5L410.2,127.6z"/>
<path class="st1" d="M419.2,143.1c0,3.2,2,6.1,5.1,6.1c2.5,0,3.9-1.4,5.1-3.6l2.8,1.7c-1.4,3.1-4.5,5.1-7.9,5.1
	c-5.2,0-8.4-4.3-8.4-9.8c0-5.7,2.8-10,8.3-10s8,4.4,8,9.9v0.6L419.2,143.1z M428.9,140.4c-0.4-2.8-2.1-4.6-4.7-4.6s-4.4,2-4.8,4.6
	H428.9z"/>
<path class="st1" d="M447.5,138.6c-1.1-1.6-2.9-2.5-4.9-2.5c-3.2,0-5.7,3.1-5.7,6.5c0,3.8,2.4,6.6,5.9,6.6c1.8-0.1,3.6-1,4.7-2.5
	v4.5c-1.4,0.8-3,1.3-4.7,1.2c-5,0-9.1-4.2-9.1-9.8c0-5.7,4.1-10,9.3-10c1.6,0,3.2,0.4,4.5,1.2V138.6z"/>
<path class="st1" d="M454.1,133.3v10.3c0,3,0.7,5.6,3.9,5.6s3.9-2.6,3.9-5.6v-10.3h3.3v10.6c0,5-2.2,8.5-7.2,8.5s-7.2-3.5-7.2-8.5
	v-10.6H454.1z"/>
<path class="st1" d="M473.1,136.3L473.1,136.3c0.7-2.1,2.6-3.5,4.8-3.6c1,0,1.9,0.3,2.7,0.9l-1.5,3.3c-0.5-0.5-1.3-0.8-2-0.8
	c-3.5,0-4,3.6-4,6.6v9.1h-3.3v-18.5h3.3L473.1,136.3z"/>
<path class="st1" d="M487,124.8c0.1,1.2-0.9,2.3-2.1,2.4c-1.2,0.1-2.3-0.9-2.4-2.1c0-0.1,0-0.2,0-0.3c-0.1-1.2,0.7-2.4,2-2.5
	s2.4,0.7,2.5,2C487,124.4,487,124.6,487,124.8z M486.4,151.8h-3.3v-18.5h3.3V151.8z"/>
<path class="st1" d="M495.4,151.8h-3.3v-15.2h-1.8v-3.3h1.8v-7.1h3.3v7.1h3.2v3.3h-3.2V151.8z"/>
<path class="st1" d="M497.6,133.3h3.8l5.8,11.7l5.4-11.7h3.7l-13.8,29.1h-3.7l6.7-13.8L497.6,133.3z"/>
<path class="st1" d="M548.8,127.6c-2-1.9-4.5-2.9-7.3-2.9c-6.2,0-10.8,5.6-10.8,12.2s4.7,12.1,10.8,12.1c2.7,0,5.4-1.1,7.3-3.1v4.4
	c-2.2,1.3-4.7,2.1-7.2,2.1c-7.8,0-14.3-6.8-14.3-15.4c0-8.8,6.5-15.7,14.6-15.7c2.5,0,4.9,0.7,6.9,2V127.6z"/>
<path class="st1" d="M569.2,142.6c0,5.6-4,9.9-9.1,9.9s-9.1-4.3-9.1-9.9s4-9.9,9.1-9.9C565.2,132.7,569.2,137,569.2,142.6z
	 M554.3,142.6c0,3.5,2.6,6.5,5.8,6.5s5.8-3,5.8-6.5s-2.6-6.5-5.8-6.5S554.3,139,554.3,142.6L554.3,142.6z"/>
<path class="st1" d="M575.7,136.3h0.1c0.6-2.1,2.5-3.5,4.7-3.6c1,0,1.9,0.3,2.7,0.9l-1.5,3.3c-0.5-0.5-1.3-0.8-2-0.8
	c-3.5,0-4,3.6-4,6.6v9.1h-3.3v-18.5h3.3L575.7,136.3z"/>
<path class="st1" d="M587.9,136.3L587.9,136.3c1.2-2.2,3.5-3.6,6-3.6c4.9,0,8,4.6,8,9.7c0,5.3-2.9,10-8.2,10
	c-2.4-0.1-4.6-1.4-5.8-3.5h-0.1v13.5h-3.2v-29.1h3.3L587.9,136.3z M598.7,142.6c0-3.6-2-6.6-5.5-6.6c-3.4,0-5.4,3.2-5.4,6.6
	s1.9,6.7,5.4,6.7C596.6,149.3,598.7,146.2,598.7,142.6z"/>
<path class="st1" d="M621.8,142.6c0,5.6-4,9.9-9.1,9.9c-5.1,0-9.1-4.3-9.1-9.9s4-9.9,9.1-9.9C617.8,132.7,621.8,137,621.8,142.6z
	 M606.9,142.6c0,3.5,2.6,6.5,5.8,6.5s5.8-3,5.8-6.5s-2.6-6.5-5.8-6.5S606.9,139,606.9,142.6L606.9,142.6z"/>
<path class="st1" d="M628.3,136.3h0.1c0.6-2.1,2.5-3.5,4.7-3.6c1,0,1.9,0.3,2.7,0.9l-1.5,3.3c-0.5-0.5-1.3-0.8-2-0.8
	c-3.5,0-4,3.6-4,6.6v9.1H625v-18.5h3.3V136.3z"/>
<path class="st1" d="M653.5,151.8h-3.3v-2.9h-0.1c-1.2,2.1-3.4,3.5-5.8,3.5c-5.2,0-8.2-4.7-8.2-10c0-5.1,3.1-9.7,8.1-9.7
	c2.5,0.1,4.7,1.5,5.9,3.6h0.1v-3.1h3.3L653.5,151.8z M650.4,142.6c0-3.6-2-6.6-5.5-6.6s-5.4,3.2-5.4,6.6s1.9,6.7,5.4,6.7
	C648.4,149.3,650.4,146.2,650.4,142.6z"/>
<path class="st1" d="M661.5,151.8h-3.3v-15.2h-1.8v-3.3h1.8v-7.1h3.3v7.1h3.2v3.3h-3.2L661.5,151.8z"/>
<path class="st1" d="M671.2,124.8c0,1.2-1,2.3-2.3,2.3s-2.3-1-2.3-2.3c-0.1-1.2,0.8-2.4,2-2.5s2.4,0.8,2.5,2
	C671.2,124.5,671.2,124.6,671.2,124.8z M670.5,151.8h-3.3v-18.5h3.3V151.8z"/>
<path class="st1" d="M692.4,142.6c0,5.6-4,9.9-9.1,9.9c-5.1,0-9.1-4.3-9.1-9.9s4-9.9,9.1-9.9S692.4,137,692.4,142.6z M677.5,142.6
	c0,3.5,2.6,6.5,5.8,6.5s5.8-3,5.8-6.5s-2.6-6.5-5.8-6.5S677.5,139,677.5,142.6L677.5,142.6z"/>
<path class="st1" d="M698.7,135.8L698.7,135.8c1-1.9,3-3.1,5.1-3c4.8,0,6,3.5,6,8v11h-3.3v-10.6c0-3.2-0.4-5.3-3.7-5.3
	c-4.2,0-4.2,4-4.2,7.4v8.5h-3.3v-18.5h3.4V135.8z"/>
<path class="st1" d="M428.3,62.3c1.6,0.1,3-1.2,3.1-2.8c0.1-1.6-1.2-3-2.8-3.1c-1.6-0.1-3,1.2-3.1,2.8c0,0,0,0.1,0,0.1
	C425.5,60.9,426.7,62.2,428.3,62.3C428.3,62.2,428.3,62.2,428.3,62.3z"/>
<path class="st1" d="M436.1,62.3c1.6,0,2.9-1.3,2.9-2.9s-1.3-2.9-2.9-2.9s-2.9,1.3-2.9,2.9S434.5,62.3,436.1,62.3z"/>
<path class="st1" d="M308.5,104.6c-1.7-0.1-3.1,1.2-3.2,2.8c-0.1,1.7,1.2,3.1,2.8,3.2c1.7,0.1,3.1-1.2,3.2-2.8c0-0.1,0-0.1,0-0.2
	C311.4,106,310.1,104.6,308.5,104.6C308.5,104.6,308.5,104.6,308.5,104.6z"/>
<path class="st1" d="M300.7,104.6c-1.7-0.1-3.1,1.1-3.2,2.8c-0.1,1.7,1.1,3.1,2.8,3.2c1.7,0.1,3.1-1.1,3.2-2.8c0-0.1,0-0.1,0-0.2
	C303.6,106,302.3,104.6,300.7,104.6C300.7,104.6,300.7,104.6,300.7,104.6z"/>
<path class="st1" d="M540.6,72.3c1.6,0.1,3-1.2,3.1-2.8s-1.2-3-2.8-3.1c-1.6-0.1-3,1.2-3.1,2.8c0,0,0,0.1,0,0.1
	C537.7,70.9,539,72.3,540.6,72.3C540.6,72.3,540.6,72.3,540.6,72.3z"/>
<path class="st1" d="M467,92.8c-1.6,0-2.8,1.3-2.8,2.9c0,0,0,0.1,0,0.1c0,1.5,1.2,2.8,2.8,2.8c1.5,0,2.8-1.2,2.8-2.8c0,0,0,0,0,0
	C469.9,94.2,468.6,92.9,467,92.8C467,92.8,467,92.8,467,92.8z"/>
<path class="st1" d="M359.3,79c-1.3-1.8-2-4-2.1-6.2c0-1.6,0.5-3.4,6.5-3.4c0.8,0,6.6,0.3,6.6,0.3l-1.8-5h-5.6c-3.2,0-5.4,0.4-7,1.3
	c-2.5,1.5-4,4.2-3.8,7.1c0.2,2.7,1,5.3,2.3,7.6c0.7,1.2,1.5,2.3,2.3,3.4h-25.1V65l-0.4,0.1l-0.5,0.2c-0.3,0.1-0.5,0.2-0.8,0.3
	l-0.9,0.3l0,0c-0.1,0-0.2,0.1-0.8,0.2c-0.3,0.1-0.6,0.2-0.9,0.3c-3.5,1-6.8,2.8-9.5,5.3c-3.2,3.1-4.9,6.6-4.9,10.4v9
	c0,3.3-2,6.7-7.4,6.7c-6.2,0-7.4-4.6-7.5-6.5c-0.3-3.1-0.4-10.9-0.4-11v-3l-0.6,1.1l-0.8,1.5l0,0v0.1c-0.4,0.6-1.3,2.3-2.6,4.2
	l-0.1,0.1l-0.1,0.1v0.9c0,4,0,10.6,3.6,14.6c2.2,2.2,5.2,3.4,8.3,3.2c4,0,7.2-1.2,9.3-3.5c1.9-2.2,3-5.1,2.9-8.1v-8.7
	c0.1-2.7,1.3-5.2,3.4-6.9c1.8-1.5,3.8-2.7,6-3.5v16.9h46.7V84h-8.7C364,84,361.1,81.4,359.3,79z"/>
<path class="st1" d="M475.1,79.6c-0.4-4.1-0.9-6.8-4.6-8.7c-1.6-0.5-3.2-0.9-4.9-1h-19.8v4.9h19.7c1,0,3.3,0.2,4.2,1.7
	c0.6,0.9,0.9,1.9,1,3c0.1,0.8,0,3.2,0,4.5h-35.8V64l-4.5,4.9v15.2H418l0,0c-0.2-0.7-0.4-1.5-0.7-2.2c-1.5-3.9-4.5-6.8-8-7.5
	c-4.5-0.9-8.2,0.2-11.1,3.1c-1.8,1.8-2.9,4-3.4,6.5h-12.2V41.7H378v47.4h16.7c0.4,2.1,1.2,4.2,2.4,6c0.6,0.8,1.2,1.6,2,2.2
	c2,1.7,4.5,2.6,7.1,2.5c2.4,0.1,4.7-0.6,6.6-2c1.9-1.4,3.4-3.4,4.3-5.6c0.4-1,0.6-2.1,0.9-3.1h61.5v-5.1h-4.3
	C475.2,81.6,475.1,80,475.1,79.6z M411.3,92.3c-1.2,1.4-3,2.1-4.8,2.1c-1.9,0-3.7-0.7-4.9-2.1c-1.3-1.4-2.1-3.3-2-5.3
	c-0.1-1.9,0.5-3.8,1.8-5.2c1.3-1.3,3-2,4.8-2c1.9-0.1,3.7,0.7,5,2c1.3,1.5,2,3.4,1.9,5.4C413.2,89,412.5,90.9,411.3,92.3L411.3,92.3
	z"/>
<path class="st1" d="M499.4,94.5c0.1,0.8-0.3,1.6-1,2c-0.8,0.5-1.7,0.8-2.7,0.8c-1,0-2-0.3-2.8-0.9c-0.6-0.6-1-1.4-0.9-2.2v-0.1V94
	l0,0c0-0.1,0-3.3,0-3.3h-4.7c0,0,0,3.4,0.1,5.2c0.1,2.3,2.1,6.1,8.5,6.1c6.7,0,8.2-5.3,8.2-7.1V41.8h-4.7L499.4,94.5z"/>
<rect x="487.3" y="41.7" class="st1" width="4.6" height="47.3"/>
<rect x="510.1" y="41.7" class="st1" width="4.7" height="47.4"/>
<path class="st1" d="M555.8,78.9v-0.2c0-0.7,0-1.5-0.1-2.2c-0.2-3.9-0.5-7.7-0.7-11.4l-0.1-1.2l-0.1-0.9l-5,7v0.1v0.2
	c0,0.4,0.1,0.8,0.2,1.2v0.1c0.2,1.3,0.4,2.6,0.4,3.9c0.1,2.3,0.1,4,0.1,5.2c0,1.5,0,3-0.2,4.5c-0.2,2.3-1.1,4.5-2.7,6.2
	c-2.2,2.2-5.4,2.8-8.3,1.7c-0.9-0.4-1.7-0.9-2.4-1.5c-2.5-2-4-6.1-3.7-10.4c0-1,0.1-2,0.3-3.3v-0.4l0,0c0.1-0.7,0.2-2.3,0.3-2.9
	l0.3-1.8l0.2-1.3l-5.5,7.6v0.1l-0.1,0.5c0,0.3,0,0.5,0,0.6c-0.1,0.8-0.1,1.6-0.1,2.4c0,1.8,0.2,3.7,0.6,5.5
	c0.7,3,4.4,10.6,13.3,10.6c2.1-0.1,4.1-0.6,5.9-1.5c6.9-3.5,7.5-12,7.4-18.1L555.8,78.9z"/>
<path class="st1" d="M705.2,41.7v42.5h-9.6V41.7h-4.8v42.5h-26.3v-2c0-1.4,0-2.4,0-3c0-1.8-0.3-3.6-0.8-5.3
	c-0.8-1.8-2.3-3.1-4.1-3.8c-1.2-0.4-2.4-0.6-3.7-0.6h-0.2c-0.3,0-11,0-21.1,0h-3.8v-5.5l-4.6,4.3v15.9h-10.8
	c-0.2-0.5-0.4-1.4-0.7-2.2c-1.5-3.9-4.5-6.8-8-7.5c-4.5-0.9-8.2,0.2-11.1,3.1c-1.8,1.8-3,4.1-3.4,6.6h-26.9V41.7h-4.7v47.5H592
	c0.4,2.1,1.2,4.2,2.4,6c0.6,0.8,1.2,1.6,2,2.2c2,1.7,4.5,2.7,7.2,2.6c2.4,0.1,4.7-0.6,6.6-2c1.9-1.4,3.4-3.4,4.3-5.6
	c0.3-1,0.6-2.1,0.8-3.1h94.5V41.7H705.2z M608.6,92.4c-1.2,1.3-3,2.1-4.8,2c-1.9,0.1-3.7-0.7-4.9-2.1c-1.3-1.4-2.1-3.3-2-5.3
	c-0.1-1.9,0.6-3.8,1.8-5.2c1.2-1.3,3-2,4.8-1.9c1.9-0.1,3.7,0.6,5.1,2c1.3,1.5,2,3.4,1.9,5.4C610.5,89.1,609.8,91,608.6,92.4
	L608.6,92.4z M659.7,84.2h-28.9v-9.6h23.6c1.3-0.1,2.7,0.2,3.8,0.9c1,0.8,1.4,1.9,1.5,3.9L659.7,84.2z M660,79.3L660,79.3z"/>
<polygon class="st1" points="660,79.3 660,79.3 659.7,79.3 "/>
<path class="st1" d="M640.1,62.3c1.6,0,2.9-1.3,2.9-2.9s-1.3-2.9-2.9-2.9l0,0c-1.6,0-2.9,1.3-2.9,2.9S638.5,62.3,640.1,62.3z"/>
</svg>
